<?xml version="1.0" standalone="no"?>
<!DOCTYPE svg PUBLIC "-//W3C//DTD SVG 20010904//EN"
 "http://www.w3.org/TR/2001/REC-SVG-20010904/DTD/svg10.dtd">
<svg version="1.0" xmlns="http://www.w3.org/2000/svg"
 width="499.000000pt" height="500.000000pt" viewBox="0 0 499.000000 500.000000"
 preserveAspectRatio="xMidYMid meet">

<g transform="translate(0.000000,500.000000) scale(0.100000,-0.100000)"
fill="#000000" stroke="none">
<path d="M2435 3738 c-27 -17 -124 -74 -215 -126 -383 -220 -425 -245 -434
-253 -6 -5 80 -9 205 -9 l214 1 135 78 c104 60 135 83 135 99 1 34 12 36 28 5
11 -20 55 -51 149 -106 l135 -77 209 0 c235 0 233 -1 109 68 -38 21 -144 82
-235 134 -346 200 -378 218 -381 217 -2 0 -26 -14 -54 -31z"/>
<path d="M1360 3205 c0 -3 11 -22 24 -43 13 -20 86 -145 162 -277 162 -284
377 -657 706 -1225 90 -157 179 -311 197 -342 18 -32 36 -60 41 -63 4 -3 57
79 116 183 59 103 132 227 161 275 29 48 53 92 53 97 0 10 -191 348 -222 393
l-19 27 -126 0 c-106 0 -124 -2 -120 -15 5 -12 78 -139 215 -376 14 -24 13
-29 -17 -83 -19 -32 -37 -54 -41 -49 -5 4 -50 80 -100 168 -51 88 -133 228
-181 312 -49 83 -89 154 -89 157 0 3 88 6 195 6 107 0 195 3 194 8 0 4 -13 27
-28 52 l-28 45 -79 0 c-69 0 -79 2 -82 19 -2 10 1 23 8 30 9 8 11 6 8 -9 -3
-18 3 -20 60 -23 39 -2 62 1 62 8 0 6 -11 28 -25 50 l-25 40 -197 2 -198 3
-112 195 c-62 107 -113 198 -113 203 0 4 29 7 64 7 57 0 64 2 70 22 4 18 8 20
17 11 9 -9 9 -16 -1 -28 -10 -13 -3 -33 50 -128 101 -181 87 -169 189 -166 47
1 103 4 124 7 l37 4 -26 47 c-15 25 -52 91 -84 146 -31 55 -85 148 -119 208
l-63 107 -329 0 c-181 0 -329 -2 -329 -5z m570 -155 c0 -5 -6 -10 -14 -10 -8
0 -18 5 -21 10 -3 6 3 10 14 10 12 0 21 -4 21 -10z m390 -500 c0 -5 -4 -10 -9
-10 -6 0 -13 5 -16 10 -3 6 1 10 9 10 9 0 16 -4 16 -10z m30 -31 c0 -5 -4 -9
-10 -9 -5 0 -10 7 -10 16 0 8 5 12 10 9 6 -3 10 -10 10 -16z m157 -976 c3 -7
-3 -9 -16 -6 -12 3 -21 10 -21 15 0 13 32 6 37 -9z m13 -38 c0 -21 -39 -40
-53 -26 -8 8 -5 11 11 11 13 0 25 7 28 15 8 19 14 19 14 0z"/>
<path d="M2160 3205 c0 -3 56 -101 124 -218 67 -117 142 -245 165 -284 l42
-73 269 0 c149 0 270 -2 270 -4 0 -16 -134 -226 -142 -224 -6 2 -24 30 -41 62
l-30 58 -60 -6 c-33 -3 -91 -6 -130 -6 -54 0 -67 -3 -59 -12 5 -7 22 -35 38
-63 15 -27 37 -66 48 -87 12 -20 68 -120 126 -222 58 -102 107 -185 110 -186
3 0 115 188 248 418 133 229 253 435 266 457 l25 40 -407 5 -407 5 -27 50
c-15 28 -28 53 -28 58 0 4 108 7 240 7 l240 0 6 40 c9 52 24 52 17 0 l-6 -40
222 2 222 3 17 30 c9 17 36 62 59 101 24 40 43 77 43 83 0 8 -200 11 -730 11
-401 0 -730 -2 -730 -5z m927 -192 c-3 -10 -5 -4 -5 12 0 17 2 24 5 18 2 -7 2
-21 0 -30z m-467 -527 c0 -3 -4 -8 -10 -11 -5 -3 -10 -1 -10 4 0 6 5 11 10 11
6 0 10 -2 10 -4z m70 -61 c-7 -8 -20 -15 -28 -15 -13 0 -12 3 4 15 25 19 40
19 24 0z"/>
<path d="M1440 2362 l0 -412 23 -14 c67 -44 698 -404 695 -397 -2 4 -49 89
-106 188 -69 120 -112 184 -130 195 -15 8 -80 45 -144 83 l-118 68 0 166 0
167 -101 174 c-55 96 -104 179 -110 185 -5 5 -9 -147 -9 -403z"/>
<path d="M3514 2728 c-14 -24 -61 -105 -105 -180 l-79 -138 0 -169 0 -169 -37
-20 c-98 -52 -228 -131 -249 -151 -13 -12 -29 -34 -37 -49 -24 -47 -139 -246
-160 -275 -10 -16 -17 -31 -14 -34 3 -3 97 48 209 112 209 121 463 269 486
283 9 6 13 103 15 420 1 227 1 412 -1 412 -1 0 -14 -19 -28 -42z"/>
</g>
</svg>
