<?xml version="1.0" standalone="no"?>
<!DOCTYPE svg PUBLIC "-//W3C//DTD SVG 20010904//EN"
 "http://www.w3.org/TR/2001/REC-SVG-20010904/DTD/svg10.dtd">
<svg version="1.0" xmlns="http://www.w3.org/2000/svg"
 width="1072.000000pt" height="523.000000pt" viewBox="0 0 1072.000000 523.000000"
 preserveAspectRatio="xMidYMid meet">

<g transform="translate(0.000000,523.000000) scale(0.100000,-0.100000)"
fill="#000000" stroke="none">
<path d="M3734 3319 c-49 -11 -117 -74 -171 -158 -19 -31 -44 -68 -55 -83 -10
-15 -21 -41 -24 -58 -4 -16 -12 -34 -20 -41 -7 -6 -20 -32 -29 -59 -9 -27 -22
-54 -30 -60 -8 -7 -17 -28 -20 -49 -4 -20 -18 -61 -32 -91 -65 -141 -66 -142
-113 -295 -10 -33 -25 -80 -33 -105 -8 -25 -19 -67 -25 -95 -12 -56 -49 -186
-56 -192 -11 -11 -154 -15 -160 -4 -4 6 4 44 18 85 21 60 26 93 26 171 0 122
-20 162 -118 232 -41 29 -55 33 -108 33 -60 0 -61 -1 -115 -53 -68 -67 -94
-104 -103 -142 -10 -44 -48 -82 -94 -94 -28 -8 -64 -34 -116 -82 -42 -39 -76
-75 -76 -80 0 -4 -11 -25 -25 -45 -14 -20 -25 -44 -25 -52 0 -9 -6 -23 -14
-31 -8 -9 -26 -46 -40 -82 -34 -85 -34 -148 0 -225 31 -71 62 -108 122 -148
42 -28 54 -31 127 -31 74 0 84 3 130 32 67 44 90 62 128 102 17 18 52 54 77
80 49 51 55 58 119 155 39 59 50 68 93 81 137 40 145 35 128 -76 -7 -46 -21
-108 -32 -138 -10 -30 -18 -82 -18 -116 0 -54 3 -64 28 -88 55 -53 150 -55
173 -4 5 12 22 45 39 72 16 28 38 68 49 90 11 22 33 50 49 62 l29 21 16 -57
c9 -32 23 -64 32 -71 8 -7 15 -18 15 -25 0 -6 27 -37 59 -68 56 -53 63 -57
108 -57 52 0 167 52 185 83 5 10 14 17 20 17 19 0 111 67 171 124 31 31 61 56
66 56 5 0 12 -19 15 -42 9 -59 53 -125 120 -183 l57 -48 87 -1 c86 -1 88 0
146 39 32 22 68 47 81 55 12 8 35 31 51 50 15 19 53 63 83 97 70 76 96 112
105 140 14 44 109 84 229 97 67 8 87 21 87 56 0 35 0 35 -79 14 -34 -8 -80
-14 -103 -12 l-43 3 3 55 c2 30 10 70 18 88 7 19 17 69 20 111 6 73 5 81 -20
124 -15 25 -52 68 -83 96 -56 51 -56 51 -123 51 -60 0 -71 -3 -106 -31 -22
-17 -43 -39 -49 -48 -5 -10 -16 -24 -23 -32 -8 -8 -31 -47 -51 -88 -34 -66
-42 -76 -77 -86 -88 -26 -172 -107 -247 -236 -14 -26 -49 -74 -77 -107 -27
-33 -50 -64 -50 -70 0 -5 -21 -25 -46 -43 -25 -19 -82 -63 -127 -99 -93 -73
-139 -100 -170 -100 -69 1 -171 183 -149 265 7 23 22 36 73 62 35 17 71 35 79
38 23 9 111 62 194 117 49 33 140 127 166 174 36 62 39 110 9 148 -28 36 -93
76 -121 76 -78 0 -235 -110 -350 -244 -34 -39 -65 -74 -70 -77 -5 -3 -17 -18
-26 -32 -53 -80 -98 -144 -112 -162 -9 -11 -22 -39 -29 -62 -6 -23 -16 -45
-21 -48 -6 -4 -17 -22 -25 -41 -8 -20 -19 -33 -25 -29 -17 10 -11 89 9 136 10
24 22 64 26 89 7 43 43 117 75 151 24 27 59 71 90 114 16 22 38 49 48 60 10
11 29 38 43 60 14 22 33 51 42 65 28 43 82 124 95 145 7 11 22 38 33 60 11 22
33 58 50 80 95 128 132 195 158 284 l22 74 -21 58 c-23 59 -103 149 -133 149
-8 0 -27 2 -43 4 -16 3 -48 0 -70 -5z m150 -109 c23 -8 26 -15 26 -54 0 -52
-67 -210 -145 -341 -13 -22 -30 -51 -36 -65 -14 -28 -79 -133 -155 -250 -47
-73 -108 -150 -118 -150 -13 0 -14 36 -1 77 7 27 23 91 35 143 12 52 37 127
56 167 19 39 34 74 34 77 0 3 11 22 25 42 14 20 25 43 25 51 0 21 59 143 81
166 10 11 19 26 19 33 0 18 94 114 112 114 9 0 28 -4 42 -10z m-994 -841 c0
-31 -6 -72 -14 -90 -7 -19 -17 -59 -20 -90 -4 -31 -19 -87 -35 -124 -25 -62
-31 -69 -71 -85 -53 -21 -59 -33 -25 -48 26 -12 33 -36 14 -48 -6 -3 -18 -21
-25 -38 -35 -75 -119 -169 -201 -223 -65 -43 -144 -52 -169 -18 -20 26 -10
135 16 187 10 20 22 52 25 72 4 19 13 40 21 47 8 6 18 29 24 50 10 37 58 119
69 119 3 0 28 -23 56 -50 49 -50 77 -65 111 -58 31 6 25 24 -12 42 l-37 17 5
95 c4 69 10 99 22 113 9 10 21 35 27 55 11 39 56 111 86 137 10 9 32 23 48 31
28 13 32 12 58 -11 23 -22 27 -34 27 -82z m1920 81 c16 -16 20 -33 20 -92 0
-71 -9 -119 -47 -262 -20 -72 -63 -126 -103 -126 -29 0 -33 -17 -10 -40 27
-27 26 -37 -19 -106 -106 -162 -248 -265 -331 -239 -12 4 -28 22 -36 41 -12
29 -12 39 0 76 8 24 17 58 21 77 6 30 27 82 76 187 10 22 19 45 19 51 0 6 14
23 32 38 30 26 33 26 43 9 5 -10 27 -35 48 -56 41 -40 84 -50 106 -24 9 11 5
16 -19 26 -37 15 -50 37 -50 85 0 41 31 143 60 196 11 20 20 44 20 54 0 24
105 125 130 125 11 0 29 -9 40 -20z m-856 -94 c-3 -12 -15 -30 -25 -42 -11
-11 -19 -25 -19 -31 0 -14 -185 -203 -224 -229 -63 -42 -88 -54 -97 -49 -15
10 -11 31 10 57 11 12 57 68 103 123 95 115 179 197 211 206 30 8 49 -9 41
-35z m-377 -362 c-3 -3 -12 -4 -19 -1 -8 3 -5 6 6 6 11 1 17 -2 13 -5z"/>
<path d="M8420 3230 c-49 -25 -83 -64 -121 -140 -18 -36 -49 -85 -69 -110 -21
-25 -41 -56 -45 -70 -4 -14 -16 -36 -26 -49 -10 -12 -21 -38 -25 -57 -3 -18
-12 -38 -19 -44 -8 -6 -17 -24 -20 -40 -13 -61 -25 -64 -272 -72 -250 -9 -300
-20 -242 -57 41 -25 137 -31 262 -16 109 13 172 12 182 -4 2 -4 -5 -26 -16
-50 -10 -24 -19 -51 -19 -60 0 -9 -8 -32 -19 -51 -10 -19 -22 -51 -26 -70 -4
-19 -15 -48 -25 -65 -10 -16 -21 -51 -25 -78 -4 -26 -16 -58 -26 -70 -10 -13
-21 -37 -25 -52 -12 -48 -44 -95 -123 -183 -101 -111 -173 -173 -191 -162 -20
12 -13 104 11 151 11 23 19 58 19 88 0 39 6 56 27 81 19 23 28 46 31 84 5 65
-10 80 -79 79 -43 -1 -55 -5 -83 -34 -29 -30 -102 -129 -131 -177 -30 -51
-134 -179 -196 -241 -55 -55 -77 -71 -100 -71 -22 0 -30 6 -35 24 -8 35 -4 48
70 206 14 30 26 61 26 68 0 23 60 141 100 200 46 66 50 99 16 139 -20 23 -32
28 -70 28 -43 0 -49 -4 -96 -54 -27 -30 -52 -66 -55 -79 -3 -13 -14 -36 -24
-51 -53 -78 -70 -110 -81 -148 -6 -23 -15 -45 -20 -48 -5 -3 -12 -27 -16 -53
-4 -26 -15 -76 -25 -112 -11 -36 -19 -87 -19 -113 0 -60 40 -152 70 -162 35
-11 102 5 152 37 46 29 174 157 206 206 28 43 71 84 82 77 7 -4 8 -32 4 -79
-8 -88 5 -131 48 -166 38 -30 125 -35 155 -8 10 8 32 22 48 31 17 8 61 45 99
82 52 52 70 64 77 54 11 -18 11 -18 -7 -75 -9 -27 -22 -83 -30 -124 -7 -41
-20 -100 -29 -130 -24 -86 -20 -177 10 -236 36 -71 85 -104 151 -104 76 0 80
4 354 347 28 35 50 65 50 67 0 5 75 110 115 161 8 11 33 47 55 80 22 33 53 78
70 100 16 22 37 55 47 73 21 40 37 44 138 35 98 -10 100 -15 51 -116 -19 -39
-60 -131 -90 -204 -79 -185 -77 -257 9 -352 62 -68 108 -58 248 53 88 69 192
178 218 228 25 47 109 148 123 147 6 0 26 -18 44 -41 17 -22 49 -54 70 -70 34
-27 42 -30 99 -26 54 3 65 8 94 38 43 46 99 118 99 128 0 5 11 19 25 32 14 13
25 28 25 33 0 8 15 30 70 100 32 40 50 81 50 112 0 23 -2 24 -27 13 -48 -20
-142 -131 -143 -169 0 -15 -51 -67 -97 -99 -12 -8 -43 -30 -69 -48 -40 -28
-51 -32 -70 -23 -49 22 -44 75 22 231 13 30 26 66 30 80 3 14 14 34 23 45 38
46 59 82 53 92 -4 5 -25 22 -47 36 -51 35 -111 37 -147 5 -32 -28 -83 -154
-92 -227 -7 -56 -24 -85 -117 -201 -11 -14 -44 -56 -74 -95 -30 -38 -61 -77
-69 -85 -7 -8 -20 -29 -29 -46 -19 -38 -91 -111 -129 -130 -20 -11 -33 -12
-47 -4 -18 9 -18 14 -6 58 7 27 19 59 28 73 8 13 18 40 22 59 4 19 15 49 25
65 10 17 21 47 25 67 4 21 13 42 21 49 8 6 14 17 14 24 0 7 14 37 30 68 21 39
30 71 30 102 0 44 -1 46 -42 64 -24 10 -75 21 -115 24 -80 8 -123 23 -123 44
0 19 45 96 69 117 39 35 -5 95 -70 96 -32 0 -90 -43 -126 -95 -28 -42 -36
-101 -20 -157 6 -24 3 -29 -22 -43 -16 -8 -32 -24 -36 -34 -5 -16 -69 -104
-117 -160 -7 -8 -29 -38 -50 -65 -21 -28 -48 -63 -60 -77 -13 -14 -32 -39 -43
-55 -40 -57 -171 -210 -222 -261 -29 -28 -53 -55 -53 -60 0 -5 -12 -16 -26
-23 -22 -12 -27 -12 -34 0 -18 28 -11 152 10 199 11 24 20 62 20 85 0 23 9 58
20 79 14 25 20 56 20 97 0 50 3 61 21 71 20 10 21 17 15 80 -6 68 -6 69 18 69
31 0 34 11 28 84 -5 57 -5 58 17 47 31 -17 41 -6 41 46 0 36 5 49 24 64 14 11
27 35 31 56 4 21 13 45 21 54 19 21 68 147 78 200 3 14 14 37 25 51 19 24 25
25 178 32 l157 6 28 31 c43 46 37 52 -44 45 -40 -3 -110 -9 -154 -12 l-82 -6
-7 32 c-5 24 -2 37 12 53 11 12 26 37 33 55 7 17 16 32 20 32 5 0 14 17 20 38
7 20 20 46 30 57 10 11 20 29 24 40 3 12 26 43 51 70 45 50 95 135 95 161 0 8
-15 23 -32 34 -41 25 -119 25 -168 0z"/>
<path d="M2273 3220 c-12 -5 -29 -23 -38 -39 -20 -39 -36 -47 -115 -56 -36 -4
-90 -13 -120 -20 -30 -8 -113 -19 -185 -24 -115 -9 -279 -44 -315 -66 -12 -8
-6 -51 11 -72 6 -6 28 -21 50 -32 48 -25 128 -27 232 -7 81 17 252 46 266 46
5 0 13 -9 16 -20 6 -20 -5 -52 -66 -174 -16 -32 -29 -67 -29 -76 0 -10 -6 -23
-14 -29 -8 -7 -17 -27 -20 -46 -4 -19 -18 -59 -31 -87 -14 -29 -25 -63 -25
-74 0 -12 -6 -27 -14 -33 -8 -6 -19 -33 -26 -59 -6 -26 -16 -52 -21 -58 -9
-11 -33 -74 -65 -174 -9 -25 -24 -63 -34 -85 -11 -22 -24 -59 -30 -82 -6 -23
-14 -45 -19 -48 -5 -3 -15 -29 -21 -57 -7 -29 -21 -70 -31 -90 -11 -21 -19
-45 -19 -55 0 -10 -11 -40 -25 -68 -13 -27 -25 -57 -25 -66 0 -8 -11 -30 -25
-49 -14 -19 -25 -39 -25 -45 0 -6 -15 -26 -34 -44 l-34 -33 -36 27 c-32 25
-126 127 -126 138 0 3 -18 31 -40 64 -46 69 -84 93 -100 63 -17 -31 -11 -93
15 -168 14 -39 25 -77 25 -83 0 -7 15 -35 34 -64 76 -113 173 -160 284 -135
44 10 63 21 103 62 28 28 57 65 65 82 8 17 21 42 29 56 23 40 65 138 65 152 0
7 12 36 25 63 14 28 25 57 25 65 0 8 9 29 20 45 11 17 20 36 20 44 0 14 43
113 80 183 11 20 20 43 20 50 0 7 9 30 19 49 24 44 66 169 77 224 4 22 15 51
25 64 11 14 19 40 19 62 0 28 4 39 15 39 9 0 21 12 27 26 10 21 8 32 -11 67
-18 33 -20 48 -13 67 9 25 10 25 26 -13 9 -22 21 -37 28 -35 19 7 22 62 4 78
-17 14 -21 67 -7 89 10 15 18 3 35 -53 5 -15 9 -16 21 -6 20 16 20 76 0 84
-16 6 -21 41 -6 50 5 3 17 -6 26 -21 17 -25 18 -26 31 -8 8 10 14 29 14 40 0
12 9 30 20 40 11 10 25 36 32 57 18 60 43 74 150 82 51 3 138 18 193 32 55 14
145 36 200 48 117 25 131 31 114 53 -11 12 -51 14 -263 12 -246 -3 -296 2
-296 30 0 25 -111 39 -157 21z"/>
<path d="M6326 3204 c-9 -8 -16 -20 -16 -25 0 -11 -32 -59 -72 -107 -16 -18
-28 -37 -28 -43 0 -6 -9 -22 -20 -36 -11 -14 -20 -32 -20 -40 0 -13 -23 -69
-70 -168 -64 -135 -80 -173 -80 -187 0 -8 -8 -26 -18 -39 -30 -39 -64 -111
-78 -164 -18 -69 -51 -165 -69 -196 -8 -14 -18 -52 -24 -85 -5 -32 -19 -77
-30 -99 -12 -21 -21 -45 -21 -52 0 -8 -7 -25 -16 -39 -13 -19 -15 -39 -11 -84
4 -47 1 -65 -12 -82 -10 -13 -25 -48 -34 -78 -29 -99 -68 -290 -62 -308 3 -10
20 -33 39 -51 30 -29 38 -32 71 -25 69 13 101 62 129 199 7 33 20 74 28 90 9
17 19 46 23 65 4 19 15 51 25 70 9 19 20 52 24 72 4 21 19 56 33 78 26 39 27
40 87 40 71 1 144 16 166 34 8 7 29 18 45 23 36 12 139 78 197 126 11 9 26 17
31 17 48 0 278 217 360 340 9 14 32 48 52 75 19 28 35 56 35 64 0 7 9 28 19
45 11 17 24 51 31 76 6 25 19 56 28 70 12 18 17 57 20 147 l4 122 -30 47 c-17
25 -32 49 -34 53 -7 15 -98 61 -123 61 -15 0 -45 -11 -68 -25 -56 -32 -315
-288 -333 -328 -16 -35 -48 -81 -79 -113 -66 -69 -138 -164 -160 -211 -8 -18
-19 -33 -24 -33 -6 0 -15 -16 -22 -35 -7 -20 -23 -42 -36 -50 -14 -9 -23 -25
-23 -40 0 -28 -19 -45 -22 -18 -3 37 4 68 17 75 7 4 16 27 19 51 4 23 15 56
26 72 11 17 20 37 20 45 0 8 11 36 25 62 14 26 25 52 25 59 0 6 9 30 19 53 64
137 81 176 81 183 0 5 9 16 20 25 10 10 26 41 35 71 13 47 14 58 1 102 -8 26
-21 52 -28 56 -21 14 -55 10 -72 -7z m529 -221 c17 -26 17 -31 1 -117 -15 -79
-47 -167 -77 -216 -5 -8 -17 -31 -27 -50 -9 -20 -23 -42 -30 -50 -7 -8 -27
-37 -44 -65 -127 -199 -429 -457 -536 -457 -18 0 -35 2 -38 4 -2 3 9 29 26 59
16 30 34 65 39 79 6 14 15 32 21 40 5 8 26 47 46 85 19 39 52 94 72 124 21 29
44 63 52 75 20 29 73 98 85 112 6 6 21 26 35 44 99 131 238 286 315 351 19 16
43 9 60 -18z"/>
<path d="M9511 2719 c-19 -18 -22 -29 -18 -63 10 -67 -36 -190 -90 -244 -32
-33 -5 -102 40 -102 31 0 116 97 136 157 10 26 36 68 59 93 33 35 42 53 42 81
0 79 -112 131 -169 78z"/>
<path d="M6001 594 c0 -11 3 -14 6 -6 3 7 2 16 -1 19 -3 4 -6 -2 -5 -13z"/>
<path d="M7480 603 c0 -5 5 -15 10 -23 8 -12 10 -11 10 8 0 12 -4 22 -10 22
-5 0 -10 -3 -10 -7z"/>
<path d="M7625 470 c-4 -6 -3 -16 3 -22 13 -13 23 4 13 21 -7 10 -10 10 -16 1z"/>
<path d="M6140 460 c0 -5 5 -10 10 -10 6 0 10 5 10 10 0 6 -4 10 -10 10 -5 0
-10 -4 -10 -10z"/>
</g>
</svg>
