<?xml version="1.0" standalone="no"?>
<!DOCTYPE svg PUBLIC "-//W3C//DTD SVG 20010904//EN"
 "http://www.w3.org/TR/2001/REC-SVG-20010904/DTD/svg10.dtd">
<svg version="1.0" xmlns="http://www.w3.org/2000/svg"
 width="980.000000pt" height="328.000000pt" viewBox="0 0 980.000000 328.000000"
 preserveAspectRatio="xMidYMid meet">

<g transform="translate(0.000000,328.000000) scale(0.100000,-0.100000)"
fill="#000000" stroke="none">
<path d="M1677 3180 c-57 -11 -56 -9 -72 -124 -6 -48 -6 -49 17 -41 53 17 156
17 189 1 18 -9 34 -16 36 -16 5 0 4 64 -3 114 -4 28 -13 50 -23 55 -26 13
-103 20 -144 11z"/>
<path d="M1294 3067 c-30 -34 -36 -56 -25 -91 6 -17 13 -44 16 -60 4 -18 9
-25 14 -18 4 6 7 -6 6 -27 0 -41 -1 -42 -51 -4 -33 25 -74 31 -74 11 0 -7 -3
-22 -6 -34 -4 -16 4 -25 44 -47 46 -25 53 -26 150 -20 l102 6 35 45 c37 48 41
62 25 93 -12 22 -30 25 -30 5 0 -8 -5 -18 -12 -22 -8 -5 -9 -2 -5 9 3 10 2 17
-3 17 -5 0 -12 -10 -16 -22 -8 -27 -33 -58 -46 -58 -6 0 -7 30 -3 75 7 82 -11
140 -40 129 -11 -5 -13 -2 -8 12 4 11 3 15 -5 10 -6 -3 -13 -2 -17 4 -10 16
-30 12 -51 -13z"/>
<path d="M1685 2993 c-47 -7 -55 -19 -53 -87 2 -91 -22 -231 -42 -246 -4 -3
-14 -18 -23 -35 -9 -16 -35 -50 -57 -74 -68 -72 -86 -120 -100 -261 -7 -69
-11 -147 -9 -175 l4 -50 145 -6 c171 -8 352 -30 473 -58 l39 -9 -4 138 c-2 79
-8 144 -13 149 -7 7 -10 44 -8 91 3 67 1 80 -12 80 -9 0 -13 5 -10 10 4 6 11
7 17 4 12 -7 -6 29 -34 69 -11 15 -24 25 -29 21 -5 -3 -9 -2 -8 3 4 20 -2 27
-12 13 -9 -12 -10 -12 -5 3 4 12 -7 34 -32 65 -21 26 -44 59 -50 75 -6 15 -16
27 -22 27 -5 0 -9 3 -9 8 4 27 -2 102 -9 98 -4 -2 -6 26 -4 64 4 60 2 69 -14
73 -35 10 -89 14 -119 10z m132 -195 c-3 -8 -6 -5 -6 6 -1 11 2 17 5 13 3 -3
4 -12 1 -19z m63 -138 c0 -5 -5 -10 -11 -10 -5 0 -7 5 -4 10 3 6 8 10 11 10 2
0 4 -4 4 -10z m110 -141 c0 -5 -4 -9 -10 -9 -5 0 -10 7 -10 16 0 8 5 12 10 9
6 -3 10 -10 10 -16z m-40 -39 c0 -5 -5 -10 -11 -10 -5 0 -7 5 -4 10 3 6 8 10
11 10 2 0 4 -4 4 -10z"/>
<path d="M874 2735 c-166 -19 -351 -68 -457 -122 -35 -17 -53 -34 -63 -60 -8
-19 -13 -37 -11 -39 3 -3 31 11 63 29 77 45 163 81 266 111 118 34 207 47 372
54 123 6 144 9 136 21 -12 21 -155 23 -306 6z"/>
<path d="M1333 2710 c-23 -5 -52 -14 -64 -20 -21 -12 -21 -12 8 -43 25 -27 53
-67 98 -141 8 -14 18 -6 60 51 76 103 109 157 91 150 -8 -3 -18 -3 -20 2 -7
11 -121 11 -173 1z"/>
<path d="M2113 2688 c-60 -7 -133 -41 -133 -64 0 -21 45 -52 85 -59 137 -23
415 -111 415 -132 0 -25 -25 -24 -101 3 -91 32 -278 82 -312 84 -5 0 -1 -10 7
-22 10 -13 16 -43 16 -73 l0 -51 58 -12 c70 -14 303 -89 314 -100 5 -5 6 -16
3 -25 -7 -18 -54 -19 -70 -1 -12 14 -143 57 -232 77 l-61 14 -7 -65 c-4 -35
-3 -68 2 -73 5 -5 53 -20 106 -34 140 -36 237 -74 237 -92 0 -19 -31 -14 -111
15 -78 29 -217 64 -228 58 -4 -3 -7 -16 -6 -28 1 -13 3 -45 4 -73 l1 -50 123
-41 c67 -23 146 -52 174 -65 29 -12 55 -20 59 -16 12 12 53 284 58 392 11 208
-27 306 -146 381 -72 45 -159 63 -255 52z m387 -430 c0 -16 -3 -19 -11 -11 -6
6 -8 16 -5 22 11 17 16 13 16 -11z m-110 -32 c0 -2 -9 -6 -20 -9 -11 -3 -18
-1 -14 4 5 9 34 13 34 5z m-20 -61 c14 -8 19 -14 10 -14 -8 0 -24 6 -34 14
-25 19 -9 19 24 0z m47 -35 c1 -16 -1 -17 -12 -7 -7 6 -11 15 -8 20 8 13 19 7
20 -13z"/>
<path d="M980 2663 c-89 -8 -195 -25 -219 -35 -14 -6 -35 -14 -46 -18 -11 -4
-54 -20 -95 -36 -169 -64 -312 -169 -359 -264 -20 -40 -46 -128 -40 -135 3 -2
52 20 110 49 187 93 422 163 616 181 l71 7 7 36 c9 52 49 137 86 183 l31 39
-64 -2 c-34 0 -79 -3 -98 -5z"/>
<path d="M1158 2632 c-38 -40 -84 -130 -98 -190 -11 -47 -9 -68 14 -190 14
-75 27 -150 28 -167 l3 -30 125 4 c69 2 129 6 134 8 13 8 -3 310 -19 368 -17
60 -74 147 -125 192 l-37 32 -25 -27z"/>
<path d="M8453 2485 c-298 -84 -442 -402 -308 -681 144 -300 549 -360 777
-116 83 88 114 167 120 297 l3 60 -235 0 -235 0 -3 -82 -3 -83 126 0 c69 0
125 -3 125 -7 0 -17 -55 -75 -93 -97 -142 -82 -325 -35 -401 104 -79 146 -15
335 136 400 43 19 65 22 129 18 88 -5 147 -34 197 -94 l29 -35 87 43 c47 23
86 45 86 49 0 3 -16 26 -35 51 -45 60 -141 131 -213 158 -74 29 -215 36 -289
15z"/>
<path d="M3550 2482 l-86 -3 -79 -314 c-44 -173 -85 -315 -91 -315 -9 0 -59
216 -122 535 l-18 90 -101 3 -101 3 8 -33 c18 -78 76 -298 134 -517 35 -130
72 -269 82 -309 l19 -73 104 3 105 3 47 195 c26 107 60 248 75 313 18 76 31
112 36 103 4 -8 41 -148 82 -313 l74 -298 102 0 103 0 53 195 c130 481 193
725 189 728 -4 5 -187 3 -192 -2 -3 -2 -55 -244 -109 -504 -16 -80 -32 -131
-38 -129 -6 2 -46 146 -90 320 -43 174 -84 317 -90 319 -6 2 -49 2 -96 0z"/>
<path d="M7184 2477 c-2 -7 -3 -217 -2 -467 l3 -455 87 -3 88 -3 2 323 3 322
149 -205 c82 -112 188 -257 235 -321 l86 -118 88 0 87 0 -2 468 -3 467 -85 0
-85 0 -5 -284 -5 -285 -189 265 c-104 145 -198 274 -209 287 -19 20 -29 22
-129 22 -79 0 -110 -3 -114 -13z"/>
<path d="M4552 2433 c-19 -46 -135 -302 -304 -673 -44 -96 -82 -183 -85 -192
-5 -16 4 -18 86 -18 l91 0 49 105 50 105 236 -2 237 -3 42 -100 43 -100 96 -3
c54 -1 97 1 97 5 0 8 -82 194 -298 678 l-107 240 -106 3 -106 3 -21 -48z m203
-295 c37 -90 69 -169 72 -175 4 -10 -29 -13 -147 -13 -137 0 -152 2 -146 16
33 85 142 334 147 334 4 0 37 -73 74 -162z"/>
<path d="M5292 2018 l3 -463 102 -3 103 -3 2 168 3 168 46 3 46 3 119 -170
119 -170 123 -1 c99 0 121 3 115 13 -4 7 -61 84 -127 171 -65 86 -117 158
-115 160 2 2 27 15 55 29 99 50 148 136 148 263 0 127 -47 208 -158 267 -39
21 -55 22 -314 25 l-272 3 2 -463z m480 292 c86 -41 89 -203 4 -247 -22 -12
-66 -18 -153 -21 l-123 -4 0 139 c0 77 3 143 8 147 11 13 234 0 264 -14z"/>
<path d="M6230 2163 c0 -345 6 -395 53 -476 58 -99 154 -146 310 -155 154 -8
246 19 332 99 90 83 107 179 103 579 l-3 265 -102 3 -102 3 -3 -338 c-3 -310
-5 -341 -22 -369 -28 -47 -70 -67 -151 -72 -97 -6 -154 18 -187 80 -22 42 -23
50 -26 371 l-3 327 -100 0 -99 0 0 -317z"/>
<path d="M768 2336 c-31 -6 -60 -14 -64 -18 -4 -5 -20 -8 -36 -8 -16 0 -41 -6
-56 -13 -15 -8 -49 -20 -77 -27 -61 -16 -133 -48 -228 -104 -63 -36 -72 -44
-69 -66 5 -33 81 -228 92 -235 5 -3 33 6 62 19 142 66 384 129 591 155 43 5
81 12 84 14 2 3 -1 15 -7 27 -12 22 -20 65 -39 192 -5 31 -12 61 -15 67 -9 14
-161 12 -238 -3z"/>
<path d="M1135 1964 c-231 -16 -593 -84 -710 -133 -11 -5 -36 -15 -55 -22 -62
-22 -119 -49 -125 -59 -3 -5 6 -28 20 -51 98 -154 187 -410 202 -578 3 -36 12
-78 19 -93 22 -43 182 -206 252 -255 76 -55 191 -101 270 -109 67 -7 165 14
221 48 39 24 191 141 187 145 -1 1 -50 12 -110 23 -178 35 -358 102 -426 159
-24 20 -24 21 -6 35 20 16 37 15 143 -11 101 -24 93 -11 -24 40 -147 64 -217
106 -221 134 -7 47 74 37 266 -35 87 -33 107 -30 43 6 -83 47 -220 141 -254
176 -81 80 -20 118 96 60 29 -15 89 -50 133 -79 131 -85 134 -83 32 16 -92 91
-114 125 -106 166 9 45 111 -7 276 -141 45 -36 82 -64 82 -61 0 4 -7 28 -16
54 -22 67 -16 115 14 119 35 5 66 -21 108 -90 88 -148 151 -206 264 -243 149
-50 376 3 588 137 50 31 55 38 78 108 28 82 87 211 129 277 l26 42 -50 26
c-140 70 -395 136 -666 171 -108 14 -561 26 -680 18z"/>
<path d="M3240 1175 c-107 -30 -199 -107 -220 -184 -16 -56 -12 -142 9 -186
36 -81 116 -126 307 -176 180 -47 224 -76 224 -147 0 -71 -89 -119 -207 -109
-83 6 -131 33 -160 87 -13 24 -25 46 -28 48 -5 5 -140 31 -167 31 -44 2 -8
-133 53 -203 118 -134 414 -165 579 -61 148 93 173 315 48 420 -47 40 -96 60
-248 100 -207 55 -252 91 -215 169 43 91 253 87 301 -6 9 -18 18 -35 20 -36 7
-9 180 -30 187 -23 9 9 -8 93 -28 130 -23 46 -99 107 -161 131 -78 29 -218 36
-294 15z"/>
<path d="M9123 1176 c-239 -58 -400 -297 -363 -540 39 -261 289 -448 542 -407
264 42 448 289 408 547 -43 278 -318 465 -587 400z m240 -216 c97 -49 151
-141 151 -255 0 -84 -24 -145 -81 -202 -60 -60 -105 -78 -198 -78 -87 0 -142
20 -198 73 -74 69 -105 202 -72 303 23 67 101 149 165 172 66 24 172 18 233
-13z"/>
<path d="M3862 703 l3 -468 355 0 355 0 0 85 0 85 -260 5 -260 5 0 95 0 95
213 3 212 2 0 90 0 90 -212 2 -213 3 0 100 0 100 243 3 242 2 0 85 0 85 -340
0 -340 0 2 -467z"/>
<path d="M4750 705 l0 -465 95 0 95 0 2 322 3 323 104 -207 103 -208 77 0 77
0 105 212 104 212 3 -326 2 -327 85 -3 c47 -2 90 -1 95 0 6 2 10 175 10 468
l0 464 -134 0 -134 0 -102 -201 c-56 -110 -106 -199 -112 -197 -7 3 -57 92
-113 199 l-101 194 -132 3 -132 3 0 -466z"/>
<path d="M5910 699 l0 -471 268 4 c298 6 335 12 414 73 64 48 93 110 93 200 0
95 -31 157 -101 204 l-51 33 48 48 c54 54 64 86 57 179 -8 107 -70 167 -197
191 -30 5 -161 10 -292 10 l-239 0 0 -471z m497 285 c39 -30 50 -83 26 -131
-27 -55 -50 -63 -195 -63 l-128 0 0 111 0 111 134 -4 c118 -3 138 -6 163 -24z
m30 -360 c41 -30 59 -92 41 -146 -24 -74 -47 -83 -216 -83 l-147 0 -3 128 -3
128 150 -3 c133 -3 153 -5 178 -24z"/>
<path d="M7146 1138 c-8 -18 -48 -107 -89 -198 -41 -91 -118 -262 -172 -380
-53 -118 -108 -238 -120 -266 -13 -29 -21 -55 -18 -58 4 -3 44 -6 90 -6 l84 0
49 105 49 105 238 0 238 0 46 -103 45 -102 92 0 c54 0 92 4 93 10 0 6 -91 216
-203 468 l-203 457 -102 0 -103 0 -14 -32z m193 -316 c34 -79 64 -154 67 -167
l6 -25 -152 0 c-118 0 -151 3 -147 13 20 50 138 321 143 329 11 17 21 -3 83
-150z"/>
<path d="M7845 1158 c-3 -7 -4 -218 -3 -468 l3 -455 103 -3 102 -3 0 48 c0 42
7 58 58 130 31 45 60 82 64 83 3 0 61 -58 129 -130 l122 -130 127 0 c70 0 130
3 133 6 7 7 -15 31 -240 271 l-124 132 166 251 c92 139 169 259 172 266 4 11
-17 14 -116 14 -120 0 -120 0 -140 -27 -11 -16 -84 -120 -161 -233 -77 -113
-151 -218 -165 -235 l-24 -30 0 263 -1 262 -100 0 c-71 0 -102 -4 -105 -12z"/>
<path d="M2185 919 c-149 -48 -299 -71 -495 -75 l-175 -4 -7 -25 c-3 -14 -20
-44 -37 -67 -17 -23 -29 -43 -27 -45 1 -2 57 14 122 36 161 54 237 69 258 52
40 -34 -2 -80 -128 -141 -55 -27 -95 -50 -88 -50 8 0 50 10 95 21 108 29 254
32 271 7 27 -43 -34 -78 -211 -120 -70 -16 -135 -33 -143 -36 -8 -4 48 -9 125
-13 77 -3 150 -9 162 -13 27 -10 38 -36 21 -52 -19 -19 -148 -44 -236 -45 -42
-1 -88 -4 -102 -8 -23 -7 -21 -8 15 -14 22 -3 65 -9 95 -12 98 -11 120 -53 38
-73 -175 -43 -507 -9 -773 80 -173 58 -382 170 -513 276 -24 19 -44 33 -46 31
-1 -2 -14 -40 -28 -84 -28 -84 -97 -268 -143 -377 -7 -17 52 -18 1150 -18 922
0 1156 3 1152 13 -70 162 -167 423 -167 450 0 10 -9 39 -20 65 -11 26 -28 96
-38 156 -10 61 -23 111 -28 112 -5 1 -49 -11 -99 -27z m-1650 -469 c3 -5 1
-10 -4 -10 -6 0 -11 5 -11 10 0 6 2 10 4 10 3 0 8 -4 11 -10z m-5 -52 c0 -18
-2 -20 -9 -8 -6 8 -7 18 -5 22 9 14 14 9 14 -14z m100 -28 c0 -5 -4 -10 -10
-10 -5 0 -10 5 -10 10 0 6 5 10 10 10 6 0 10 -4 10 -10z"/>
</g>
</svg>
